<?xml version="1.0" standalone="no"?>
<!DOCTYPE svg PUBLIC "-//W3C//DTD SVG 20010904//EN"
 "http://www.w3.org/TR/2001/REC-SVG-20010904/DTD/svg10.dtd">
<svg version="1.0" xmlns="http://www.w3.org/2000/svg"
 width="356.000000pt" height="356.000000pt" viewBox="0 0 356.000000 356.000000"
 preserveAspectRatio="xMidYMid meet">
<metadata>
Created by potrace 1.16, written by Peter Selinger 2001-2019
</metadata>
<g transform="translate(0.000000,356.000000) scale(0.100000,-0.100000)"
fill="#000000" stroke="none">
<path d="M1635 3550 c-613 -50 -1163 -421 -1439 -970 -40 -80 -87 -190 -105
-245 -214 -667 -34 -1372 473 -1852 679 -643 1750 -642 2433 2 563 529 718
1352 388 2052 -315 667 -1015 1072 -1750 1013z m430 -74 c747 -127 1322 -724
1420 -1473 46 -347 -8 -670 -166 -988 -250 -507 -727 -856 -1284 -940 -131
-20 -378 -19 -513 1 -650 96 -1194 566 -1389 1199 -81 266 -95 580 -37 865 69
337 278 695 540 924 209 183 451 312 709 379 87 22 133 31 280 51 61 9 353 -3
440 -18z"/>
<path d="M1730 3380 c0 -18 7 -20 60 -20 33 0 60 -4 60 -10 0 -5 -17 -10 -38
-10 -21 0 -43 -5 -50 -12 -25 -25 -11 -79 31 -125 32 -35 39 -16 11 27 -31 47
-26 70 16 70 29 0 30 -1 30 -48 0 -27 6 -57 14 -67 13 -19 15 -18 20 15 3 19
7 60 9 90 2 46 5 55 22 58 13 2 24 -6 32 -23 9 -20 8 -25 -3 -25 -22 0 -16
-16 20 -55 26 -28 40 -35 55 -30 17 5 21 2 21 -17 0 -13 6 -33 14 -43 12 -17
14 -14 25 33 6 28 14 70 17 92 5 28 12 40 23 40 38 -1 41 -13 22 -88 -18 -67
-18 -74 -2 -93 16 -19 17 -17 40 70 22 85 25 90 46 85 15 -4 24 0 28 10 8 20
6 21 -88 44 -125 31 -158 36 -149 20 6 -11 5 -11 -8 0 -14 11 -167 31 -245 32
-26 0 -33 -4 -33 -20z"/>
<path d="M1515 3375 c-167 -31 -323 -82 -455 -150 -83 -43 -101 -60 -83 -78 3
-4 30 7 58 23 55 31 75 37 75 20 0 -5 -9 -10 -19 -10 -11 0 -32 -11 -48 -24
-24 -21 -26 -27 -18 -52 15 -43 57 -54 95 -26 28 21 30 21 39 3 10 -19 51 -36
51 -21 0 4 -16 42 -35 84 -32 71 -33 76 -16 85 27 15 152 61 164 61 22 0 -9
-17 -73 -40 -80 -29 -78 -27 -54 -44 13 -10 24 -11 36 -5 12 6 18 6 18 0 0
-35 66 -54 93 -26 13 13 16 12 21 -8 3 -12 14 -28 26 -35 26 -16 26 -4 0 90
-11 40 -20 75 -20 79 0 7 102 29 134 29 17 0 18 -2 6 -10 -8 -5 -24 -10 -36
-10 -27 0 -54 -30 -54 -59 0 -20 74 -101 93 -101 18 0 4 30 -24 54 -36 31 -35
57 4 67 31 8 32 7 42 -53 4 -24 14 -42 27 -49 20 -11 21 -10 15 27 -4 22 -10
63 -13 92 -6 49 -5 54 15 59 19 5 32 45 14 42 -5 -1 -39 -7 -78 -14z"/>
<path d="M2366 3264 c-4 -9 -5 -18 -4 -19 2 -1 29 -12 60 -24 40 -16 55 -27
51 -37 -5 -13 -7 -13 -17 0 -14 18 -64 38 -77 30 -5 -3 -9 -14 -9 -25 0 -14 7
-19 29 -19 17 0 32 -4 35 -9 7 -11 -17 -21 -50 -21 -17 0 -24 -6 -24 -20 0
-16 7 -20 35 -20 32 0 34 -1 24 -23 -6 -14 -7 -31 -1 -47 9 -24 10 -23 33 22
22 43 25 46 43 32 15 -11 16 -14 4 -14 -19 0 -48 -31 -48 -52 0 -34 71 -68 78
-37 2 11 -6 19 -22 23 -34 9 -34 30 0 23 23 -4 30 2 57 44 33 55 31 53 58 39
18 -10 18 -13 4 -33 -29 -41 -13 -117 25 -117 10 0 33 18 51 41 28 36 34 39
47 26 13 -14 9 -22 -32 -74 -31 -41 -46 -68 -46 -89 l1 -29 42 50 c95 111 84
102 99 82 13 -18 15 -18 28 -2 13 15 11 20 -15 42 -126 104 -257 188 -381 244
-75 34 -70 33 -78 13z"/>
<path d="M779 3042 c-73 -58 -156 -137 -214 -203 -26 -30 -36 -34 -79 -34 -41
-1 -52 -5 -77 -33 -32 -36 -29 -68 9 -87 20 -11 20 -11 -5 -50 -56 -92 -85
-157 -73 -169 8 -8 16 -5 29 13 15 20 21 22 40 12 12 -7 20 -20 19 -29 -2 -14
4 -16 31 -14 19 1 41 8 49 14 12 10 11 14 -2 24 -10 7 -14 18 -10 28 7 18 29
21 39 6 7 -11 58 -14 68 -4 4 4 -29 29 -73 56 -71 44 -78 51 -68 68 11 17 15
16 72 -23 53 -36 98 -49 113 -33 3 2 -29 28 -71 56 l-75 53 17 26 c9 14 27 37
40 51 l23 25 -21 -37 c-24 -41 -26 -36 48 -95 31 -24 36 -25 73 -14 21 6 39
16 39 21 0 16 -19 21 -39 11 -30 -16 -48 11 -31 47 13 26 14 26 18 5 2 -15 10
-23 23 -23 28 0 24 36 -5 55 -31 20 -62 7 -78 -33 -6 -16 -12 -22 -15 -14 -3
7 7 28 21 46 22 29 24 36 11 46 -8 7 -15 15 -15 19 0 11 109 121 120 121 5 0
10 -9 10 -20 0 -13 -12 -25 -35 -34 -34 -15 -55 -53 -40 -76 12 -20 55 -30 96
-24 49 8 46 29 -5 30 -43 1 -51 7 -41 31 5 12 9 14 12 6 3 -7 15 -13 29 -13
21 0 23 3 18 33 l-5 32 31 -37 c21 -25 41 -38 56 -38 13 0 24 3 24 6 0 4 -27
37 -60 74 l-60 68 25 16 c25 16 25 16 71 -44 35 -44 54 -60 71 -60 28 0 27 1
-34 82 -48 63 -49 66 -27 82 14 11 14 14 1 24 -12 11 -28 3 -88 -46z"/>
<path d="M1680 3073 c-173 -16 -315 -55 -466 -128 -365 -176 -625 -514 -710
-920 -25 -122 -26 -375 -1 -492 57 -264 163 -467 341 -651 245 -253 536 -385
881 -399 387 -15 730 125 996 404 369 389 461 960 234 1441 -139 293 -378 522
-677 649 -179 75 -418 114 -598 96z m355 -74 c487 -98 873 -490 972 -986 24
-121 23 -357 -1 -473 -51 -245 -158 -450 -329 -626 -338 -351 -834 -473 -1294
-319 -428 143 -735 493 -830 945 -25 117 -24 362 1 480 116 542 540 932 1084
999 105 13 276 4 397 -20z"/>
<path d="M1707 2701 c-11 -14 -10 -14 8 -1 19 14 19 14 6 -3 -10 -12 -17 -14
-26 -7 -14 12 -40 -11 -27 -24 4 -4 2 -6 -5 -4 -6 2 -11 -1 -11 -6 -1 -5 -11
-14 -24 -20 -19 -9 -23 -19 -22 -52 0 -35 -3 -41 -20 -40 -12 1 -26 5 -33 9
-6 4 -14 3 -18 -3 -4 -6 -12 -7 -18 -3 -7 4 -22 8 -34 9 -19 1 -21 -2 -11 -14
7 -8 13 -21 14 -29 2 -12 0 -12 -14 -1 -13 11 -14 11 -8 0 6 -10 2 -13 -15
-10 -14 2 -23 -2 -22 -8 1 -7 -7 -20 -18 -30 -23 -21 -53 -28 -42 -11 4 7 1 7
-9 -1 -12 -9 -18 -10 -23 -2 -5 8 -11 8 -21 -1 -8 -6 -14 -8 -14 -4 0 5 -8 1
-18 -9 -13 -11 -18 -28 -17 -56 1 -21 -1 -37 -5 -35 -4 3 -15 -4 -24 -14 -13
-14 -14 -21 -5 -27 7 -4 10 -3 5 4 -3 6 -2 13 3 16 13 8 8 -19 -7 -37 -10 -11
-9 -17 5 -28 17 -13 17 -13 3 6 -15 20 -14 20 8 1 l22 -19 -27 -30 c-16 -17
-23 -27 -16 -23 6 3 15 1 19 -5 4 -7 3 -9 -4 -5 -6 3 -13 2 -17 -4 -4 -6 -10
-8 -14 -5 -5 2 -7 -9 -6 -25 2 -21 -2 -30 -12 -30 -8 0 -11 -4 -8 -10 3 -5 0
-10 -8 -10 -22 0 -41 -26 -26 -36 7 -4 9 -3 5 4 -3 6 -2 13 3 16 14 9 7 -19
-9 -40 -8 -10 -10 -15 -3 -11 6 4 15 3 18 -3 4 -6 1 -9 -7 -8 -7 2 -12 -3 -10
-11 2 -11 0 -12 -10 -3 -11 9 -14 -1 -13 -53 0 -39 5 -69 13 -77 11 -11 13
-10 10 2 -2 9 3 14 12 12 11 -3 10 1 -3 16 -14 15 -15 22 -6 28 8 5 10 3 4 -6
-5 -8 -4 -11 3 -6 6 3 9 16 7 27 -3 16 -1 18 9 10 10 -8 12 0 11 39 -1 29 3
48 9 47 5 -1 10 9 11 23 0 14 6 26 13 26 23 3 24 4 13 17 -8 11 -7 18 7 31 10
9 22 13 27 9 4 -5 5 -3 2 3 -7 12 11 31 28 29 18 -1 35 -16 29 -26 -3 -5 -2
-9 3 -8 21 4 44 -2 39 -10 -3 -4 4 -17 17 -27 21 -19 21 -19 7 1 -14 18 -14
19 2 7 9 -7 15 -22 13 -32 -2 -11 -1 -19 3 -19 21 3 42 -2 38 -10 -3 -4 4 -17
17 -27 21 -19 21 -19 7 1 -14 18 -14 19 2 7 19 -15 17 -49 -3 -44 -8 2 -6 -4
5 -17 18 -20 15 -26 -9 -21 -5 1 -1 -8 9 -19 18 -20 15 -26 -9 -21 -5 1 -1 -8
9 -19 18 -20 15 -26 -9 -22 -5 1 -2 -6 7 -15 16 -17 16 -18 -4 -28 -19 -10
-24 -35 -6 -29 5 2 7 -1 5 -6 -1 -5 1 -8 4 -8 3 1 12 -3 20 -10 13 -10 15 -3
14 57 -1 43 3 68 9 67 6 -1 10 4 8 11 -1 6 4 11 10 10 7 -2 12 3 10 10 -1 6 1
11 5 10 5 -2 8 2 8 7 0 6 -4 9 -10 7 -5 -2 -1 6 9 17 10 11 22 19 26 16 9 -6
7 37 -3 53 -5 7 -14 9 -20 5 -26 -16 -33 -9 -33 33 0 34 3 41 14 32 10 -9 12
-8 10 3 -2 8 3 13 10 11 6 -1 11 4 10 10 -2 7 2 12 8 11 7 -1 10 9 9 26 -2 23
1 28 21 27 27 -2 66 -35 57 -49 -4 -6 2 -8 15 -5 12 4 25 2 28 -3 3 -5 10 -7
15 -3 5 3 8 2 7 -3 -2 -4 2 -10 7 -11 6 -2 15 -7 20 -11 9 -6 30 -7 38 -1 1 1
10 3 19 5 11 2 15 -3 13 -14 -2 -10 3 -18 10 -18 8 0 12 4 10 8 -8 12 24 4 37
-9 9 -9 8 -12 -6 -12 -9 0 -14 -5 -11 -10 4 -6 1 -9 -7 -8 -7 2 -12 -3 -10 -9
1 -7 -4 -13 -11 -13 -7 0 -13 -11 -13 -26 0 -19 4 -24 18 -21 10 3 21 1 24 -4
4 -6 11 -6 18 0 7 6 17 7 21 3 5 -4 5 -2 1 5 -3 6 -1 15 6 20 17 10 39 13 34
4 -3 -4 6 -7 19 -7 16 0 22 5 20 17 -3 13 2 17 15 14 23 -4 49 24 44 49 -2 14
0 16 9 7 14 -14 17 -61 3 -58 -5 1 -10 -8 -11 -20 0 -12 -3 -25 -7 -29 -4 -4
-3 -13 3 -20 7 -8 7 -14 -1 -19 -8 -5 -8 -11 1 -21 9 -11 8 -14 -3 -14 -16 0
-19 -43 -4 -57 5 -5 6 -1 1 7 -5 8 -4 12 0 7 15 -13 14 -37 -1 -37 -8 0 -13
-6 -11 -12 1 -7 -4 -12 -12 -10 -12 3 -12 0 -2 -12 8 -10 9 -16 1 -21 -6 -3
-8 -11 -4 -16 3 -5 10 -6 16 -3 6 4 8 2 4 -4 -3 -6 -2 -13 3 -16 5 -4 12 -2
16 4 4 6 11 7 17 4 6 -4 8 -2 5 3 -4 6 0 16 8 23 12 10 14 8 10 -9 -2 -11 0
-23 5 -26 6 -4 7 -40 0 -40 -7 0 -5 -57 2 -61 4 -3 5 -11 1 -17 -10 -16 -12
-57 -2 -52 9 6 6 -15 -4 -33 -5 -7 -12 -10 -17 -7 -4 3 -7 -3 -6 -12 2 -13 12
-17 42 -17 38 0 40 -1 40 -32 0 -26 -3 -31 -14 -22 -7 6 -12 7 -11 2 4 -21 -2
-26 -17 -13 -21 17 -46 21 -37 6 5 -8 2 -8 -8 0 -12 10 -18 10 -28 0 -10 -9
-12 -9 -9 3 2 8 -2 14 -8 13 -6 -1 -11 4 -11 12 0 8 5 11 10 8 6 -4 7 -1 1 8
-12 19 -14 40 -4 34 5 -3 11 -1 15 5 4 6 10 8 14 6 14 -9 6 43 -9 56 -11 11
-11 9 0 -7 14 -18 13 -19 -1 -8 -9 7 -18 11 -21 8 -2 -3 -5 2 -5 10 0 8 4 12
8 9 4 -2 10 0 14 6 4 6 10 8 15 5 9 -6 8 14 -3 31 -3 6 -3 14 0 18 13 12 11
33 -3 33 -7 0 -10 -5 -7 -11 4 -7 1 -6 -8 1 -8 6 -17 11 -21 10 -3 -1 -10 2
-15 7 -5 6 -2 6 7 1 13 -8 13 -7 1 8 -13 17 -15 16 -36 -3 -12 -11 -24 -18
-27 -15 -8 8 -3 -38 5 -52 4 -6 3 -15 -3 -18 -8 -5 -8 -11 0 -20 8 -9 8 -15 0
-20 -6 -3 -8 -11 -5 -16 4 -5 -1 -9 -9 -9 -9 0 -13 7 -11 19 2 13 -1 18 -13
16 -9 -2 -17 -4 -17 -5 0 -1 -8 -3 -18 -5 -9 -2 -15 1 -11 6 3 5 11 6 17 3 8
-5 8 -3 0 6 -17 19 -41 21 -39 4 1 -7 10 -22 19 -32 15 -16 15 -21 4 -30 -8
-7 -16 -10 -19 -7 -2 2 -4 -22 -3 -54 1 -39 -3 -58 -11 -58 -7 0 -11 9 -9 20
4 16 2 17 -11 6 -12 -10 -15 -10 -12 1 2 7 -6 18 -17 24 -11 7 -21 17 -23 25
-1 7 2 10 7 7 5 -3 14 1 20 8 8 10 9 16 1 21 -6 3 -8 11 -5 16 4 5 -2 9 -11 9
-15 0 -14 4 6 25 13 14 20 26 17 26 -4 1 -12 2 -19 3 -6 0 -12 9 -14 19 -2 13
1 15 10 8 9 -7 12 -4 12 12 0 17 -6 23 -22 23 -14 0 -21 -5 -19 -16 1 -8 -2
-21 -8 -27 -9 -13 -8 -14 15 -17 6 0 12 -9 14 -19 2 -15 0 -16 -14 -5 -9 7
-14 8 -9 3 8 -10 -22 -47 -33 -40 -10 6 -7 -15 3 -32 4 -6 3 -14 -3 -18 -6 -4
-8 -11 -5 -16 4 -5 0 -9 -8 -9 -9 0 -13 -10 -12 -27 1 -24 5 -27 31 -27 26 1
31 -2 30 -22 -1 -12 -10 -32 -21 -44 -21 -23 -29 -69 -11 -66 6 1 17 6 25 10
9 6 12 5 8 -1 -3 -5 0 -10 8 -10 8 0 12 8 10 20 -3 15 -2 17 10 7 12 -10 13
-8 10 9 -2 11 -1 20 3 18 4 -1 8 3 10 8 2 6 10 17 18 26 8 9 11 20 7 24 -5 5
1 3 11 -5 11 -8 17 -10 13 -4 -4 7 0 17 8 24 8 7 12 17 8 23 -3 5 -1 7 4 4 6
-4 16 0 23 8 9 11 16 12 26 4 10 -8 12 -6 9 10 -2 12 1 20 8 18 7 -1 11 3 10
9 -1 5 9 10 23 10 23 0 23 -1 -13 -38 -20 -21 -34 -39 -30 -39 4 -1 12 -2 17
-3 15 -2 14 -19 -2 -26 -8 -3 -13 -22 -14 -45 0 -36 3 -41 22 -41 13 0 22 5
21 11 -1 5 3 9 9 8 7 -1 10 10 9 28 -2 22 0 27 10 19 6 -5 11 -27 10 -48 -2
-36 0 -38 30 -38 32 0 37 9 22 34 -5 8 -1 15 12 20 11 4 21 12 23 17 2 6 7 9
11 7 5 -1 6 2 3 7 -4 5 -2 13 4 16 8 5 8 11 1 19 -17 20 0 28 21 10 14 -13 15
-20 7 -31 -6 -7 -10 -13 -8 -14 34 -7 37 -6 34 10 -2 10 2 18 9 18 7 0 13 -10
12 -21 -1 -13 4 -20 13 -18 12 3 12 0 1 -13 -8 -10 -16 -12 -24 -6 -9 8 -12
-2 -11 -36 0 -44 2 -47 28 -47 15 0 27 4 28 10 0 5 7 16 15 25 8 9 11 20 7 24
-5 5 1 3 12 -5 11 -8 17 -10 12 -5 -4 4 0 16 9 26 12 13 12 19 3 25 -7 4 -10
3 -5 -4 3 -6 3 -13 -2 -16 -11 -6 -9 161 2 171 5 5 6 2 1 -6 -5 -9 -4 -12 3
-7 15 9 15 11 -5 27 -15 12 -16 12 -8 -1 8 -13 6 -13 -8 -2 -9 8 -15 19 -14
25 1 7 -7 11 -19 9 -12 -1 -26 3 -32 10 -8 10 -3 13 24 15 19 1 32 -2 29 -7
-3 -5 -1 -11 5 -15 6 -4 7 -11 4 -17 -4 -6 -2 -8 4 -4 6 3 9 15 7 26 -2 12 0
18 5 15 5 -3 11 -1 15 5 4 6 10 8 15 5 5 -3 7 4 5 16 -4 18 -2 20 7 11 7 -7
13 -24 14 -37 0 -14 -1 -23 -4 -20 -3 3 -11 0 -19 -6 -10 -9 -10 -15 -2 -25 6
-8 8 -14 3 -14 -5 0 2 -6 16 -13 22 -11 25 -19 25 -64 -1 -28 3 -49 7 -47 5 3
5 10 2 16 -5 7 -2 8 5 4 9 -6 8 -13 -5 -27 -9 -10 -20 -17 -23 -14 -4 2 -7
-22 -6 -54 1 -39 -3 -58 -11 -58 -7 0 -11 8 -9 17 2 9 -3 17 -10 17 -8 0 -11
-5 -8 -11 4 -6 0 -5 -9 2 -12 10 -17 10 -27 -1 -6 -8 -7 -17 -3 -21 4 -4 2 -6
-3 -4 -6 2 -12 -1 -13 -7 -2 -5 -8 -15 -13 -21 -5 -6 -6 -14 -2 -18 4 -3 8
-13 9 -22 2 -12 -1 -13 -11 -4 -11 10 -13 8 -10 -9 2 -11 -1 -24 -7 -27 -6 -4
-8 -2 -4 4 3 6 2 13 -3 16 -5 4 -8 -2 -7 -11 2 -14 11 -17 42 -16 58 4 63 5
61 17 -1 6 3 10 10 9 12 -3 12 14 0 34 -4 6 -3 14 3 18 6 4 7 12 3 18 -4 7 2
5 12 -3 10 -8 16 -10 12 -4 -8 14 26 47 37 37 4 -5 6 -1 4 7 -2 8 2 14 9 13 6
-2 10 5 8 16 -2 10 3 18 10 18 8 0 12 -3 10 -7 -2 -4 2 -7 10 -7 8 0 12 4 10
8 -3 3 2 12 10 19 12 10 13 16 3 27 -13 16 -20 62 -9 61 3 0 14 0 25 1 15 1
16 4 7 15 -8 10 -9 16 -1 21 6 3 7 12 3 18 -4 7 0 7 10 -1 14 -12 16 -11 12 7
-2 12 0 19 5 16 5 -3 11 -1 15 5 4 6 11 8 16 4 5 -3 8 0 7 8 -2 7 2 12 8 11 6
-1 10 10 9 25 0 15 -6 28 -13 28 -7 1 -15 2 -19 3 -3 0 2 10 12 21 12 14 22
17 30 10 8 -6 16 -5 24 3 10 9 12 9 9 -3 -2 -9 3 -14 11 -12 12 3 12 0 1 -13
-8 -10 -17 -12 -24 -6 -9 8 -12 -13 -11 -79 1 -70 -2 -87 -12 -79 -9 8 -11 6
-8 -10 2 -12 0 -19 -4 -17 -5 3 -16 -3 -25 -13 -13 -14 -14 -21 -5 -27 8 -5
10 -3 4 6 -6 9 -4 11 4 6 9 -6 8 -13 -6 -29 -10 -11 -13 -17 -6 -14 6 4 14 3
18 -2 3 -5 13 -8 23 -6 15 3 17 -5 17 -60 0 -48 -3 -61 -12 -54 -8 7 -11 5 -9
-7 3 -19 32 -28 42 -13 3 5 10 7 15 3 5 -3 8 0 7 8 -2 7 2 12 9 11 7 -2 10 6
8 18 -3 17 -2 19 10 9 12 -10 13 -8 10 9 -2 12 0 19 5 16 5 -3 11 -1 15 5 4 6
12 7 18 3 7 -3 4 2 -5 13 -9 10 -18 24 -20 29 -2 6 -6 9 -10 8 -4 -2 -5 6 -3
16 2 10 -3 18 -10 18 -8 0 -12 -4 -10 -8 3 -4 -3 -6 -12 -5 -10 2 -18 8 -18
14 0 6 -3 14 -7 18 -10 9 10 34 26 34 8 0 12 22 11 70 -1 55 2 67 12 59 9 -8
11 -6 8 11 -4 19 -2 20 13 9 9 -7 14 -9 9 -4 -4 4 -1 15 7 24 8 9 16 21 18 26
2 6 10 9 20 9 11 -1 15 5 13 18 -4 17 -2 18 13 7 9 -7 14 -9 9 -4 -4 4 1 18
10 29 18 20 17 20 -2 6 -20 -14 -20 -14 -1 7 10 13 22 21 26 18 9 -6 6 42 -3
52 -5 4 -23 8 -41 8 -32 1 -32 1 -31 -46 1 -28 -3 -47 -9 -46 -5 1 -11 -8 -12
-20 -1 -13 -3 -25 -4 -28 -1 -3 -3 -9 -4 -14 0 -5 -4 -12 -9 -15 -4 -3 -5 -3
-2 1 3 3 -1 13 -7 21 -14 16 -19 64 -7 56 4 -2 10 0 14 6 4 6 12 7 18 3 7 -3
5 2 -4 13 -9 10 -15 31 -14 46 1 15 -3 26 -9 25 -6 -1 -10 4 -9 10 2 7 -3 12
-9 10 -9 -1 -13 12 -12 39 0 35 -3 40 -22 40 -13 0 -22 -5 -21 -10 1 -6 -3
-10 -10 -9 -13 3 -12 -22 2 -34 4 -4 5 -3 2 3 -4 6 3 20 16 30 l22 19 -19 -22
c-18 -21 -15 -28 9 -23 5 1 1 -7 -8 -18 -14 -15 -15 -22 -6 -28 8 -5 10 -3 4
6 -5 9 -4 11 4 6 9 -6 9 -11 0 -22 -9 -11 -15 -11 -25 -3 -10 8 -12 6 -9 -10
2 -12 -1 -20 -8 -18 -7 1 -11 -3 -10 -10 1 -6 -4 -17 -13 -24 -12 -10 -15 -10
-12 2 2 8 -2 13 -7 12 -6 -1 -11 9 -11 22 0 13 3 22 7 19 4 -2 10 0 14 6 4 6
10 8 15 5 5 -3 7 4 5 16 -3 17 -2 19 10 9 11 -9 13 -7 10 7 -1 10 -9 17 -16
15 -8 -2 -11 0 -7 4 4 4 3 13 -3 21 -10 11 -15 11 -27 1 -9 -7 -13 -8 -9 -2 3
6 0 11 -7 11 -7 0 -12 -11 -12 -26 1 -14 -3 -26 -9 -26 -5 0 -9 3 -8 8 3 7
-20 11 -45 8 -8 -1 -20 3 -27 9 -12 10 -13 8 -10 -10 4 -19 2 -20 -13 -9 -14
12 -14 10 1 -8 13 -14 15 -23 7 -28 -8 -5 -8 -10 0 -20 8 -9 8 -15 0 -20 -6
-3 -7 -12 -3 -18 14 -23 11 -34 -11 -33 -27 2 -48 15 -41 26 6 9 -14 8 -31 -3
-6 -3 -14 -3 -18 0 -10 10 -37 13 -31 3 3 -4 -3 -14 -12 -21 -10 -8 -14 -9
-10 -2 4 6 3 15 -3 18 -8 5 -8 11 0 20 8 9 8 15 0 20 -6 3 -7 12 -3 18 13 20
11 34 -3 34 -7 0 -10 -5 -7 -11 4 -6 0 -5 -8 1 -11 9 -19 9 -26 2 -8 -8 -13
-7 -18 1 -5 8 -12 7 -24 -4 -15 -14 -18 -14 -18 -1 0 8 5 11 11 8 6 -4 4 1 -4
11 -16 20 -23 49 -10 41 5 -3 11 -1 15 5 4 6 10 8 14 6 4 -3 7 6 7 19 0 13 -3
22 -7 20 -11 -7 -35 29 -35 51 1 23 24 56 35 50 4 -3 7 6 7 19 0 19 -3 22 -14
13 -10 -9 -12 -8 -10 3 2 8 -3 13 -11 11 -12 -3 -12 0 -2 11 13 16 27 17 50 3
10 -7 12 -6 6 4 -6 10 -4 11 6 4 21 -13 39 -13 36 -1 -1 7 3 11 9 10 7 -1 10
10 9 28 -2 24 0 27 11 18 10 -8 12 -7 9 9 -3 19 -1 20 34 13 2 -1 -1 -7 -6
-13 -11 -15 -11 -28 0 -46 5 -8 2 -15 -10 -20 -23 -9 -27 -51 -4 -47 9 1 21
-2 28 -7 7 -5 14 -5 18 2 3 6 10 8 14 5 5 -2 7 9 6 25 -1 17 2 28 9 27 6 -1
10 3 9 10 -1 6 5 10 15 8 9 -1 21 0 26 3 15 9 57 9 62 0 3 -5 9 -6 14 -3 10 6
8 -15 -3 -32 -4 -6 -3 -15 3 -18 8 -5 8 -11 0 -20 -8 -10 -8 -15 0 -20 8 -5 8
-10 0 -20 -8 -10 -8 -15 0 -20 8 -5 8 -10 0 -20 -7 -9 -7 -15 -1 -19 5 -4 8
-14 6 -24 -2 -13 3 -18 20 -18 13 0 23 5 22 11 -1 5 4 9 10 8 7 -2 12 3 10 10
-1 6 3 11 9 10 7 -1 10 10 9 28 -2 23 0 27 10 19 10 -9 13 -7 11 7 -2 11 -10
17 -20 15 -10 -2 -24 2 -32 9 -13 10 -12 14 2 30 9 10 20 17 24 14 3 -2 6 10
6 28 -1 18 4 31 10 30 6 -1 11 4 11 12 0 8 -5 13 -11 12 -6 -1 -10 4 -9 11 2
6 -3 12 -11 12 -24 0 -38 26 -21 40 8 7 12 17 8 23 -4 6 -1 7 8 1 24 -15 38
-13 34 5 -2 10 3 18 10 18 8 0 12 -3 10 -7 -2 -4 2 -7 10 -7 8 0 13 5 12 11
-1 6 3 10 9 9 20 -4 10 61 -11 73 -11 6 -19 15 -18 21 1 5 -4 10 -12 10 -8 0
-12 -8 -10 -20 3 -14 1 -16 -9 -8 -10 8 -12 0 -11 -38 1 -48 -5 -55 -33 -38
-7 5 -10 13 -6 18 3 5 0 8 -8 7 -9 -2 -12 12 -12 50 0 37 -4 52 -14 52 -7 0
-11 4 -7 9 3 5 1 12 -5 16 -6 4 -7 12 -3 18 19 31 13 37 -44 36 -29 0 -60 1
-79 3 -6 1 -10 18 -9 39 l2 37 -43 -1 c-24 0 -42 -6 -41 -12 1 -5 -4 -9 -11
-7 -8 1 -11 -2 -8 -6 7 -12 -28 -44 -38 -35 -4 5 -6 1 -4 -7 1 -8 -2 -14 -8
-13 -7 1 -10 -10 -9 -28 2 -24 0 -27 -11 -18 -10 8 -12 6 -9 -10 2 -12 -1 -20
-8 -18 -7 1 -11 -4 -9 -12 3 -12 0 -12 -12 -2 -13 11 -15 10 -12 -6 3 -14 -2
-19 -19 -19 -13 0 -22 3 -19 7 5 9 -17 6 -34 -4 -7 -5 -10 -12 -8 -16 9 -14
-43 -6 -56 9 -11 11 -9 11 7 0 18 -13 19 -13 8 1 -13 16 -68 20 -89 6 -6 -3
-20 3 -30 16 l-19 22 25 -20 25 -20 -18 22 c-11 12 -25 19 -33 16 -8 -3 -23 2
-33 11 -10 9 -21 14 -24 11 -4 -3 -5 -2 -2 2 3 3 -2 14 -10 23 -14 15 -14 18
0 30 8 7 12 17 8 24 -3 6 -2 7 2 3 11 -10 16 -39 6 -32 -4 2 -8 -2 -8 -9 0
-16 22 -15 40 3 9 10 9 12 -3 9 -8 -2 -14 5 -14 17 0 11 5 19 12 18 7 -2 11 3
9 10 -1 6 3 11 9 10 7 -1 10 10 9 27 -1 17 2 28 8 27 6 -1 11 3 12 8 0 6 4 15
8 22 4 6 3 15 -3 18 -8 5 -8 11 0 20 8 10 8 15 0 20 -8 5 -8 11 0 20 12 14
-11 40 -25 27 -5 -4 -5 -2 -2 4 9 16 -19 39 -28 24 -5 -8 -11 -8 -21 1 -7 6
-12 14 -10 18 9 14 -45 6 -57 -8z m-162 -220 c-3 -5 8 -9 25 -9 22 1 41 -8 64
-31 27 -26 33 -39 31 -71 -2 -33 0 -38 12 -28 11 9 13 8 11 -3 -2 -8 3 -13 11
-11 12 3 12 1 1 -14 -18 -21 -21 -61 -4 -61 7 0 10 5 7 11 -4 6 1 5 10 -3 9
-7 14 -17 11 -22 -3 -5 2 -9 11 -9 9 0 13 -4 10 -10 -3 -5 1 -10 9 -10 9 0 13
-7 11 -18 -2 -11 3 -19 10 -19 8 0 12 4 10 8 -6 9 16 6 33 -5 19 -11 -2 -33
-30 -32 -29 2 -50 15 -43 26 3 5 -3 7 -15 5 -11 -2 -22 1 -25 6 -4 5 -11 7
-16 3 -5 -3 -8 0 -7 8 2 7 -2 12 -8 11 -7 -1 -10 10 -9 27 1 16 -2 28 -7 27
-6 -1 -12 6 -13 16 -3 13 0 15 9 8 9 -7 12 -4 12 14 0 18 -3 22 -13 14 -9 -8
-11 -6 -9 8 3 14 -2 19 -18 19 -20 0 -22 -4 -21 -57 1 -55 -1 -59 -32 -50 -9
3 -18 -2 -16 -9 1 -4 -9 -18 -22 -30 -14 -13 -25 -20 -25 -17 0 31 -19 50 -35
37 -9 -8 -15 -8 -20 0 -3 6 -12 7 -18 3 -20 -13 -54 -10 -54 3 0 11 3 11 16 1
14 -11 14 -10 2 6 -11 14 -17 15 -30 5 -9 -7 -13 -8 -9 -4 4 5 2 16 -4 24 -16
19 -18 62 -3 62 8 0 12 12 10 30 -2 25 0 28 12 19 11 -10 13 -9 11 2 -2 8 3
13 10 11 6 -1 11 4 10 10 -2 7 3 12 10 11 6 -2 11 3 10 10 -2 6 2 11 9 10 7
-2 10 6 8 18 -4 18 -2 19 11 8 12 -10 15 -10 12 2 -2 8 3 13 10 12 6 -2 11 3
10 10 -2 7 6 11 19 9 12 -2 24 2 28 8 3 5 8 10 11 10 3 0 3 -4 -1 -9z m791
-124 c6 -3 14 -3 18 0 12 12 35 12 33 0 -1 -7 4 -11 11 -9 6 1 11 -4 10 -10
-2 -7 3 -12 11 -10 12 3 12 1 1 -14 -17 -20 -21 -62 -7 -71 6 -4 7 -1 2 7 -6
9 -4 11 4 6 10 -6 9 -12 -1 -24 -16 -19 -17 -31 -4 -50 6 -10 11 -10 21 -2 15
13 16 -5 1 -29 -6 -9 -5 -12 1 -8 5 3 10 0 10 -6 0 -14 -60 -17 -73 -5 -4 4
-12 4 -18 1 -6 -4 -21 -8 -33 -9 -16 -1 -20 4 -18 18 4 17 2 18 -12 6 -10 -8
-14 -8 -10 -1 4 6 3 14 -3 18 -6 4 -7 12 -3 18 14 22 11 36 -10 54 l-22 18 20
-25 c19 -24 19 -24 0 -7 -18 16 -31 92 -14 81 4 -2 10 0 14 6 4 6 10 8 15 5 5
-3 7 4 5 16 -3 17 -2 19 10 9 12 -10 13 -8 10 8 -3 20 9 23 31 9z"/>
<path d="M2717 2121 c-10 -4 -19 -11 -19 -16 0 -6 -3 -9 -7 -8 -5 1 -7 -16 -6
-38 1 -23 -4 -44 -12 -51 -11 -9 -13 -8 -11 2 3 14 -40 42 -53 35 -3 -3 -5
-18 -4 -35 2 -24 0 -28 -11 -19 -10 8 -12 6 -9 -10 2 -11 -1 -24 -7 -27 -6 -4
-8 -2 -4 4 3 6 2 13 -2 16 -13 8 -8 -40 6 -57 13 -15 56 -12 47 3 -3 4 3 14
12 21 12 10 14 10 9 2 -10 -17 -1 -16 13 1 9 11 9 16 0 22 -8 5 -10 3 -4 -7 5
-8 4 -10 0 -6 -17 15 -12 33 9 34 11 0 35 2 53 4 29 3 31 5 18 19 -13 15 -13
19 3 33 10 10 21 15 23 12 3 -2 5 11 5 30 0 36 -16 47 -49 36z"/>
<path d="M1645 1932 c3 -3 -5 -10 -17 -16 -22 -11 -34 -61 -16 -72 4 -3 5 -11
1 -17 -11 -17 -11 -57 -1 -63 4 -3 5 -11 1 -17 -4 -7 -8 -21 -8 -32 -1 -11 -6
-19 -12 -18 -6 1 -10 -5 -9 -15 2 -9 6 -16 9 -14 4 1 14 2 23 2 9 0 12 5 8 13
-6 8 -3 8 9 -1 14 -12 16 -11 12 8 -3 18 -2 20 10 10 12 -10 13 -8 10 10 -3
16 -1 19 8 11 10 -7 13 -2 13 24 0 18 -5 33 -10 32 -6 -1 -10 5 -11 13 0 8 -6
16 -12 16 -24 3 -25 4 -13 19 7 8 16 12 21 9 5 -3 8 0 7 8 -2 7 2 12 7 11 6
-1 11 14 11 32 0 18 -5 33 -11 32 -5 -1 -9 3 -8 9 1 6 -5 11 -13 11 -7 0 -12
-3 -9 -5z"/>
<path d="M1105 1761 c1 -67 -1 -79 -23 -102 -17 -20 -20 -29 -11 -34 8 -6 10
-4 4 5 -6 9 -4 11 4 6 9 -6 8 -12 -4 -26 -12 -14 -13 -20 -4 -26 8 -5 10 -3 4
6 -6 9 -4 11 4 6 9 -6 8 -13 -6 -29 -10 -11 -13 -17 -6 -14 6 4 15 3 18 -3 4
-6 1 -9 -7 -8 -7 2 -12 -3 -10 -11 2 -11 0 -12 -11 -3 -11 9 -13 4 -13 -31 0
-23 -4 -41 -10 -40 -5 1 -10 -13 -10 -31 0 -19 5 -33 13 -33 7 0 10 3 8 7 -2
4 2 7 10 7 8 0 13 -5 12 -10 -1 -6 8 -16 21 -22 13 -7 24 -16 25 -21 1 -5 6
-8 10 -6 5 1 6 -2 3 -7 -7 -11 18 -33 28 -24 18 18 32 9 32 -21 -1 -25 3 -30
17 -28 23 4 49 -17 40 -32 -4 -6 1 -5 10 2 14 12 16 11 12 -7 -2 -12 1 -20 8
-18 7 1 11 -4 9 -11 -1 -8 2 -11 6 -8 10 6 45 -28 37 -35 -2 -3 11 -5 30 -5
18 0 32 3 29 7 -2 4 4 13 13 20 14 12 16 12 8 0 -6 -11 -5 -12 6 -5 8 4 23 10
33 11 27 5 47 23 39 36 -4 6 -1 7 8 1 27 -16 36 -12 34 15 -2 26 0 27 39 27
27 1 40 5 38 13 -1 7 2 10 7 7 5 -4 12 -2 16 4 4 6 10 8 15 5 5 -3 7 4 5 16
-3 16 -1 18 9 10 10 -8 12 -4 12 17 -1 15 4 27 9 27 6 0 9 -4 7 -10 -2 -5 6
-1 17 9 24 22 29 35 6 16 -14 -11 -19 -7 -16 13 0 4 -6 7 -15 7 -8 0 -13 4 -9
9 8 14 -15 25 -52 26 -25 1 -30 -2 -28 -17 2 -10 0 -16 -5 -13 -5 3 -11 1 -15
-5 -4 -6 -12 -7 -18 -3 -7 4 -5 -1 3 -11 18 -23 21 -44 7 -53 -17 -11 -38 -13
-32 -3 3 4 -3 14 -12 21 -9 8 -14 9 -10 3 3 -6 0 -11 -8 -11 -8 0 -13 5 -12
11 1 6 -5 10 -13 8 -12 -3 -12 -1 1 15 17 20 18 31 5 51 -5 9 -12 10 -20 3 -8
-7 -11 14 -11 84 0 51 2 92 4 89 2 -2 13 4 24 13 11 10 18 13 14 7 -3 -6 0
-11 7 -11 8 0 12 11 11 28 -1 17 2 27 9 26 6 -1 10 5 8 13 -2 8 0 12 4 8 4 -4
13 -3 21 3 10 9 10 15 2 25 -6 8 -15 11 -20 9 -4 -3 -6 3 -4 13 2 11 -3 19
-10 19 -8 0 -12 -3 -10 -7 2 -4 -2 -7 -10 -7 -7 0 -12 8 -10 17 2 11 -4 16
-20 16 -18 0 -22 -5 -20 -28 2 -16 -2 -28 -9 -28 -8 0 -11 -42 -11 -142 0
-108 -3 -143 -12 -143 -11 0 -16 -7 -12 -17 7 -23 5 -39 -6 -48 -10 -8 -15 -8
-20 0 -5 8 -11 8 -20 0 -11 -9 -13 -8 -10 7 3 20 -2 22 -57 24 -20 0 -26 5
-23 18 2 12 -4 17 -20 17 -13 0 -22 -3 -20 -6 2 -3 -7 -6 -20 -6 -16 0 -22 5
-20 17 4 18 -10 20 -34 5 -10 -6 -12 -5 -7 2 4 7 1 12 -9 12 -9 0 -13 5 -10
10 3 6 0 10 -8 10 -9 0 -13 10 -12 28 1 15 6 26 11 25 5 -1 9 64 9 151 0 99
-3 153 -10 153 -7 0 -10 -30 -10 -76z"/>
<path d="M1070 1028 c0 -14 9 -18 39 -18 42 0 71 -20 71 -48 0 -33 -16 -45
-54 -40 -30 3 -36 1 -36 -14 0 -10 7 -18 15 -18 9 0 15 -9 15 -25 0 -28 40
-75 64 -75 25 0 46 12 46 26 0 9 -11 14 -28 14 -15 0 -33 5 -40 12 -16 16 -15
48 2 48 7 0 19 7 26 15 9 11 16 13 24 5 5 -5 17 -10 26 -10 8 0 23 -13 32 -30
20 -35 57 -47 104 -32 31 9 33 8 36 -17 2 -15 9 -26 18 -26 12 0 16 20 18 108
3 106 3 107 27 107 l25 0 0 -111 c0 -99 2 -110 17 -107 16 3 18 17 18 108 0
102 1 105 23 108 15 2 22 9 20 20 -5 24 -191 23 -196 -2 -2 -9 3 -16 12 -16
24 0 22 -101 -2 -123 -22 -20 -73 -22 -90 -5 -18 18 -15 25 16 33 39 10 62 34
62 66 0 36 -24 59 -62 59 -30 0 -57 -22 -58 -47 0 -18 37 -16 44 2 9 25 36 18
36 -10 0 -28 -1 -28 -76 -42 -48 -8 -52 -8 -51 11 0 12 -3 29 -7 39 -7 14 -3
17 17 17 13 0 30 7 37 15 11 13 8 15 -16 15 -16 1 -62 2 -102 3 -63 2 -72 0
-72 -15z"/>
<path d="M2073 1018 c-38 -10 -52 -43 -33 -78 9 -16 9 -25 1 -33 -6 -6 -11
-23 -11 -38 0 -33 32 -59 71 -59 28 0 42 -20 33 -45 -4 -10 0 -15 14 -15 27 0
36 28 17 56 -9 14 -11 25 -5 29 14 8 -6 45 -25 45 -7 0 -20 -7 -29 -15 -21
-21 -36 -19 -36 6 0 13 10 23 30 30 38 14 39 37 3 41 -20 2 -28 9 -28 23 0 16
7 20 35 21 24 0 36 5 38 16 4 20 -32 27 -75 16z"/>
<path d="M1687 1013 c-20 -19 -5 -32 36 -30 39 2 42 0 45 -26 2 -16 -2 -35 -9
-43 -11 -14 -13 -14 -21 0 -12 22 -31 20 -46 -4 -10 -17 -9 -23 5 -38 10 -9
24 -30 30 -45 14 -30 53 -53 77 -44 26 10 19 37 -9 37 -14 0 -29 8 -35 19 -8
16 -4 25 20 50 35 35 38 68 9 105 -16 20 -29 26 -58 26 -21 0 -41 -3 -44 -7z"/>
<path d="M2228 1009 c-21 -12 -24 -59 -6 -77 9 -9 9 -15 0 -24 -33 -33 0 -98
50 -98 34 0 55 -24 38 -45 -11 -13 -8 -15 15 -15 25 0 27 2 21 33 -4 17 -6 43
-6 56 0 39 -28 52 -55 25 -17 -18 -49 -11 -43 9 2 6 18 19 36 27 37 17 42 40
10 40 -33 0 -52 15 -44 35 5 13 15 16 41 13 29 -3 35 -1 35 14 0 14 -8 18 -37
18 -21 0 -46 -5 -55 -11z"/>
<path d="M1883 966 c-24 -21 -28 -31 -27 -72 1 -38 6 -52 28 -71 33 -28 56
-29 90 -2 22 17 26 28 26 70 0 40 -5 55 -25 74 -30 31 -56 32 -92 1z"/>
<path d="M2925 2879 c-4 -5 1 -19 10 -29 22 -25 11 -44 -16 -27 -17 10 -22 9
-34 -7 -17 -23 -39 -122 -30 -136 11 -18 25 -11 25 13 0 32 11 67 21 67 5 0
15 -12 23 -27 14 -26 13 -29 -11 -48 -17 -14 -24 -28 -21 -44 3 -22 6 -20 70
28 37 28 71 51 75 51 11 0 73 -96 73 -112 0 -7 -11 4 -25 25 -28 41 -47 46
-67 19 -7 -9 -25 -23 -40 -29 -27 -12 -43 -46 -36 -79 5 -29 28 -29 28 0 0 30
24 44 48 29 25 -16 28 -37 4 -31 -13 4 -23 0 -26 -9 -14 -35 29 -46 57 -15 22
24 21 44 -3 75 -11 14 -16 28 -12 31 5 3 19 -13 31 -35 17 -30 27 -39 40 -34
9 4 20 7 24 8 13 3 69 -111 62 -124 -5 -7 -13 1 -22 20 -36 74 -132 33 -103
-44 7 -20 6 -32 -6 -51 -23 -35 -13 -39 39 -16 39 17 48 18 64 7 14 -11 15
-16 6 -26 -10 -10 -16 -9 -30 3 -15 14 -20 14 -30 3 -10 -11 -9 -17 9 -29 29
-21 51 -20 71 2 19 21 22 53 6 69 -7 7 -6 12 6 17 12 4 20 -3 29 -27 31 -75
33 -71 -48 -97 -56 -17 -76 -28 -80 -44 -3 -11 -4 -22 -2 -23 2 -2 40 8 86 22
45 15 83 25 84 23 11 -19 26 -80 21 -88 -10 -16 -23 -12 -30 10 -11 36 -43 23
-79 -32 -19 -29 -37 -63 -41 -75 -10 -37 12 -26 36 16 l22 40 51 -6 c52 -6 66
-15 66 -45 0 -13 -16 -19 -75 -29 -57 -9 -78 -17 -86 -31 -6 -11 -9 -21 -7
-23 3 -3 82 8 151 20 19 3 27 0 27 -10 0 -8 9 -15 20 -15 14 0 20 7 20 21 0
12 14 37 30 56 34 38 38 68 14 101 -12 17 -24 22 -46 20 -30 -3 -31 -1 -53 72
-30 98 -57 165 -110 272 -37 74 -127 217 -160 254 -5 6 -30 34 -53 63 -45 52
-56 59 -67 40z"/>
<path d="M241 2243 c-17 -60 -36 -144 -42 -188 -16 -121 -17 -124 -49 -140
-49 -25 -77 -104 -48 -133 7 -7 26 -12 43 -12 l32 0 6 -102 c9 -154 69 -416
95 -411 5 1 7 -9 5 -22 -3 -14 2 -30 14 -42 10 -10 18 -27 18 -38 0 -11 7 -20
15 -20 10 0 14 8 13 22 -2 14 5 27 17 33 13 7 20 22 21 43 1 30 1 30 8 7 4
-15 15 -26 29 -28 19 -3 22 1 22 31 0 19 9 46 20 60 15 18 17 28 9 33 -7 4
-20 -3 -32 -17 -15 -19 -29 -24 -66 -25 -25 0 -53 -2 -61 -5 -9 -2 -16 4 -18
16 -2 17 8 23 63 39 40 11 72 27 81 40 20 29 6 30 -74 7 -38 -12 -74 -21 -79
-21 -6 0 -16 21 -23 48 -6 26 -14 54 -17 62 -3 10 -1 12 5 5 6 -5 12 -19 14
-29 5 -29 34 -43 58 -28 11 6 31 12 46 12 32 0 50 17 59 58 5 25 3 32 -9 32
-8 0 -16 -10 -18 -22 -4 -29 -37 -36 -55 -12 -19 25 -16 37 7 31 10 -3 24 1
31 9 9 11 6 16 -15 25 -46 21 -83 -31 -56 -81 6 -11 6 -21 1 -24 -5 -4 -12 8
-16 26 -12 62 -16 68 -38 65 -24 -2 -34 25 -36 101 -1 30 3 42 13 42 11 0 16
-14 18 -47 4 -57 26 -68 64 -32 31 29 30 39 -2 39 -21 0 -25 4 -22 23 2 17 10
23 39 25 21 2 45 12 54 23 18 19 17 19 -79 19 -87 0 -97 2 -94 18 3 14 16 17
79 20 61 2 80 7 94 22 18 20 17 20 -77 20 l-95 0 1 30 c1 24 5 30 23 30 12 0
25 5 28 10 4 6 12 4 22 -5 19 -20 35 -15 50 15 6 13 26 31 44 40 40 21 22 38
-21 20 -25 -11 -33 -9 -56 9 -15 12 -37 21 -50 21 -17 0 -24 6 -24 20 0 23 12
24 95 9 52 -9 60 -9 77 9 19 19 19 19 -58 32 -104 16 -104 16 -97 53 10 60 34
137 43 137 19 0 18 -44 -2 -71 -18 -24 -20 -33 -10 -54 19 -40 76 -31 130 21
20 21 -4 25 -35 7 -29 -16 -70 -12 -58 6 3 6 12 8 19 5 7 -3 19 2 26 11 10 12
10 18 0 30 -18 22 -8 27 29 14 25 -9 39 -9 59 1 26 12 24 14 -61 42 -82 28
-88 32 -83 53 5 20 -8 35 -29 35 -1 0 -16 -48 -34 -107z"/>
<path d="M3341 1833 c4 -45 -14 -62 -24 -23 -3 11 -12 20 -21 20 -20 0 -84
-40 -109 -68 -27 -30 -5 -35 33 -7 19 14 35 25 37 25 2 0 3 -16 3 -35 0 -34
-1 -35 -38 -35 -25 0 -45 -7 -56 -19 -16 -18 -14 -19 79 -26 93 -7 97 -8 91
-29 -3 -11 -6 -31 -6 -43 0 -14 -6 -23 -15 -23 -9 0 -15 9 -15 25 0 31 -26 33
-78 5 -53 -28 -75 -47 -68 -59 4 -5 25 1 53 17 39 22 45 23 40 8 -4 -10 -10
-28 -13 -41 -3 -13 -17 -31 -30 -40 -17 -11 -24 -25 -24 -46 0 -26 -3 -29 -20
-24 -20 6 -69 -19 -53 -27 4 -3 45 -15 89 -28 69 -20 81 -26 76 -42 -7 -30
-19 -31 -88 -8 -56 19 -70 20 -93 10 -25 -12 -23 -14 61 -44 80 -28 88 -33 85
-56 -1 -16 4 -25 14 -28 12 -2 23 19 46 90 42 127 47 152 31 142 -7 -4 -5 2 5
13 10 12 17 27 16 35 -1 7 1 20 4 28 12 30 27 173 27 261 0 83 -1 89 -21 89
-13 0 -20 -6 -18 -17z"/>
<path d="M3011 1139 l-25 -10 32 -19 c17 -11 54 -31 82 -45 l50 -25 -16 -33
c-32 -61 -67 -107 -81 -107 -22 0 -5 41 29 70 26 22 28 28 19 51 -6 16 -19 28
-34 31 -31 6 -89 -13 -95 -31 -3 -10 4 -12 36 -6 41 7 60 -4 46 -26 -5 -8 -9
-8 -14 1 -6 9 -13 9 -29 1 -17 -10 -19 -16 -11 -31 17 -31 12 -32 -30 -4 -30
20 -45 25 -60 18 -18 -8 -13 -15 50 -62 63 -47 69 -55 59 -73 -8 -15 -8 -24 0
-32 14 -14 38 8 76 71 27 45 33 49 67 49 71 0 124 59 98 108 -7 14 -21 25 -31
25 -9 0 -20 7 -23 16 -4 10 -12 14 -23 10 -10 -4 -43 7 -82 28 -53 27 -71 32
-90 25z"/>
<path d="M511 1044 c-54 -33 -76 -42 -86 -34 -7 6 -20 8 -29 4 -12 -5 -13 -10
-5 -26 8 -14 6 -31 -7 -64 -17 -44 -16 -46 3 -72 21 -29 66 -40 87 -23 10 8
17 7 26 -4 7 -8 16 -12 21 -9 5 3 9 -4 9 -15 0 -29 47 -63 71 -50 10 5 19 19
19 30 0 18 5 21 30 17 51 -8 35 35 -17 46 -17 4 -34 14 -37 23 -10 26 1 27 38
3 l36 -22 0 25 c0 17 -10 29 -35 43 -34 18 -46 34 -25 34 12 0 33 50 26 58 -3
3 -39 -18 -80 -47 -72 -50 -75 -51 -86 -31 -14 27 -9 33 56 72 33 20 57 42 61
56 3 13 4 25 2 27 -3 2 -37 -17 -78 -41z"/>
<path d="M2560 593 c-65 -44 -277 -153 -299 -153 -6 0 -11 -4 -11 -10 0 -5 11
-10 24 -10 27 0 43 -27 26 -44 -8 -8 -17 -3 -32 17 -20 27 -61 37 -73 17 -9
-15 14 -40 36 -40 21 0 26 -16 7 -23 -9 -3 -7 -10 7 -21 25 -19 45 -20 45 -2
0 28 21 28 46 1 32 -35 41 -26 21 23 -17 43 -14 52 16 52 15 0 18 -5 15 -25
-4 -19 -1 -25 13 -25 21 0 24 21 9 51 -8 14 -21 19 -50 19 -22 0 -40 4 -40 8
0 4 20 18 45 30 l45 22 27 -54 c14 -30 35 -57 45 -59 23 -7 23 -7 -13 65 -23
46 -28 63 -18 69 8 4 20 -2 32 -18 17 -21 26 -24 58 -20 27 3 39 1 43 -9 5
-13 36 -20 36 -9 0 3 -16 30 -35 60 -34 53 -34 55 -14 66 22 12 28 7 70 -58
11 -18 27 -33 35 -33 21 0 18 8 -22 66 -30 43 -35 56 -25 68 26 31 -7 21 -69
-21z"/>
<path d="M920 616 c0 -7 9 -16 20 -19 11 -3 20 -11 20 -17 0 -8 -9 -10 -25 -6
-18 5 -25 2 -25 -8 0 -8 5 -16 12 -18 7 -3 9 -12 5 -22 -11 -27 -40 0 -34 31
6 32 -9 29 -17 -3 -10 -40 19 -67 62 -59 l33 6 -16 -25 c-10 -15 -14 -33 -10
-43 5 -14 13 -6 40 37 19 30 36 58 37 63 2 4 32 -8 67 -27 35 -18 58 -36 52
-40 -6 -4 -24 0 -40 9 l-31 15 7 -31 c5 -25 3 -31 -8 -27 -8 2 -15 19 -17 36
-2 18 -7 32 -13 32 -13 0 -11 -74 3 -88 19 -19 54 -14 67 11 11 22 11 22 6 -3
-4 -14 -10 -40 -15 -59 -7 -28 -5 -37 8 -48 16 -11 15 -12 -2 -13 -11 0 -33
12 -48 27 -31 29 -38 21 -10 -13 28 -35 62 -49 79 -32 11 12 12 20 3 40 -10
20 -7 34 16 82 15 31 32 55 38 53 80 -32 96 -41 96 -54 0 -10 -6 -13 -17 -8
-10 3 -30 9 -45 12 -25 5 -28 3 -28 -20 0 -31 19 -46 32 -24 5 9 15 14 24 10
12 -4 13 -15 8 -49 -10 -66 11 -54 36 20 15 45 25 63 35 60 19 -8 26 -56 9
-75 -8 -8 -14 -21 -14 -27 0 -16 47 -45 60 -37 6 4 19 -4 29 -16 l18 -23 14
65 c12 54 18 65 37 67 25 4 27 -8 11 -77 -8 -35 -7 -47 4 -59 13 -12 16 -5 27
58 9 56 15 70 27 66 8 -3 26 -6 39 -6 15 0 24 -6 24 -15 0 -8 -9 -15 -20 -15
-13 0 -20 -7 -20 -20 0 -24 57 -90 78 -90 12 0 9 7 -11 28 -27 28 -27 29 -12
65 12 29 21 37 40 37 24 0 25 -2 25 -64 0 -48 4 -65 15 -70 12 -4 15 6 15 64
0 63 2 70 20 70 25 0 27 20 3 20 -50 1 -149 14 -237 31 -54 10 -101 18 -105
17 -3 -1 -19 4 -36 11 -16 7 -64 26 -105 42 -87 35 -93 40 -84 63 4 11 13 15
25 11 23 -8 25 8 4 25 -19 16 -45 -3 -45 -31 0 -11 -3 -19 -7 -19 -8 0 -70 34
-132 73 l-34 21 6 -26 c8 -29 -11 -52 -31 -39 -10 6 -10 11 3 21 22 18 19 46
-7 64 -28 20 -38 20 -38 2z"/>
</g>
</svg>
